<?xml version="1.0" encoding="UTF-8" standalone="no"?>
<svg version="1.1" xmlns="http://www.w3.org/2000/svg" xmlns:xlink="http://www.w3.org/1999/xlink">
  <symbol id="ellie-logo" viewBox="0 0 51 20">
    <path fill-rule="evenodd" d="M30,5.43424318 C30.1985122,5.0868469 30.2977667,4.72704901 30.2977667,4.35483871 C30.2977667,3.98262841 30.1654273,3.79652605 29.9007444,3.79652605 C29.3217506,3.79652605 28.6807314,4.3920536 27.9776675,5.58312655 C27.2746036,6.7741995 26.7493814,8.33745931 26.4019851,10.2729529 C26.9644362,9.4127335 27.4813872,8.69313772 27.9528536,8.11414392 C28.42432,7.53515012 28.8337452,7.03060596 29.1811414,6.60049628 C29.5285377,6.1703866 29.8014878,5.78163945 30,5.43424318 Z M35.7320099,5.50868486 C35.2853576,4.84697767 35.0620347,4.1356531 35.0620347,3.37468983 C35.0620347,2.61372655 35.1819674,1.98097854 35.4218362,1.4764268 C35.6617051,0.971875062 35.8891635,0.599670347 36.1042184,0.359801489 C36.3192732,0.11993263 36.5674097,0 36.8486352,0 C37.3118303,0 37.7336623,0.343255459 38.1141439,1.02977667 C38.4946256,1.71629789 38.6848635,2.29114739 38.6848635,2.75434243 C38.6848635,3.61456179 38.3829641,4.28866588 37.7791563,4.77667494 C37.1753485,5.264684 36.4929732,5.50868486 35.7320099,5.50868486 Z M44.3176179,10.1488834 C43.4573985,10.1488834 42.861871,11.1497005 42.5310174,13.1513648 C42.8784136,12.9197672 43.2051267,12.7129868 43.5111663,12.5310174 C43.8172058,12.3490479 44.0860203,12.1753524 44.3176179,12.0099256 C44.8138983,11.6459866 45.070306,11.2324258 45.0868486,10.7692308 C45.0868486,10.3556638 44.8304409,10.1488834 44.3176179,10.1488834 Z M20.5707196,5.43424318 C20.7692318,5.0868469 20.8684864,4.72704901 20.8684864,4.35483871 C20.8684864,3.98262841 20.7361469,3.79652605 20.471464,3.79652605 C19.8924702,3.79652605 19.251451,4.3920536 18.5483871,5.58312655 C17.8453232,6.7741995 17.320101,8.33745931 16.9727047,10.2729529 C17.5351558,9.4127335 18.0521068,8.69313772 18.5235732,8.11414392 C18.9950396,7.53515012 19.4044648,7.03060596 19.751861,6.60049628 C20.0992573,6.1703866 20.3722074,5.78163945 20.5707196,5.43424318 Z M13.4508208,16.980886 C13.4883556,17.0809443 13.529149,17.1774728 13.573201,17.2704715 C14.4334203,19.0570809 16.0463074,19.942101 18.4119107,19.9255583 C19.0901605,19.9255583 19.7518578,19.7684052 20.3970223,19.4540943 C21.0421868,19.1397834 21.6129007,18.7386294 22.1091811,18.2506203 C22.4397425,17.9255684 22.7281001,17.578502 22.9742575,17.2094165 C22.9835119,17.2299344 22.9929199,17.2502861 23.0024814,17.2704715 C23.8627007,19.0570809 25.4755878,19.942101 27.8411911,19.9255583 C28.5194409,19.9255583 29.1811382,19.7684052 29.8263027,19.4540943 C30.4714672,19.1397834 31.0421811,18.7386294 31.5384615,18.2506203 C31.8571342,17.9372589 32.1365842,17.6034382 32.3768148,17.2491538 C32.679009,19.0334303 33.4582805,19.9255583 34.7146402,19.9255583 C36.0380546,19.942101 37.2828726,19.4003364 38.4491315,18.3002481 C38.6551993,18.1058722 38.8430615,17.910593 39.0127185,17.7144103 C39.0345903,17.7669939 39.0576461,17.8175255 39.0818859,17.866005 C39.7932211,19.2886754 41.1331581,20 43.101737,20 C45.583139,20 47.5351459,19.3300315 48.9578164,17.9900744 C49.5368102,17.444166 49.950371,16.8858589 50.1985112,16.3151365 C50.4466514,15.744414 50.5707196,15.227463 50.5707196,14.764268 C50.5707196,14.301073 50.4549226,14.0694789 50.2233251,14.0694789 C50.0744409,14.0694789 49.8593893,14.2307676 49.5781638,14.5533499 C49.2969382,14.8759321 48.9330047,15.2274588 48.4863524,15.6079404 C47.2787367,16.6335866 46.0297831,17.146402 44.7394541,17.146402 C44.1273749,17.1298593 43.5814747,16.9975199 43.101737,16.7493797 C42.6219993,16.5012395 42.3738628,16.0794074 42.3573201,15.483871 L42.3573201,14.8635236 C43.0190273,14.5657553 43.6931314,14.2969408 44.3796526,14.057072 C45.0661738,13.8172031 45.6906506,13.544253 46.2531017,13.2382134 C46.8155529,12.9321738 47.2746053,12.5516979 47.630273,12.0967742 C47.9859406,11.6418505 48.1637717,11.0587298 48.1637717,10.3473945 C48.1637717,9.63605931 47.9197708,9.05707419 47.4317618,8.61042184 C46.9437527,8.16376948 46.2489706,7.94044665 45.3473945,7.94044665 C44.4458185,7.94044665 43.5980189,8.14309144 42.8039702,8.5483871 C42.0099216,8.95368275 41.3110038,9.52026104 40.707196,10.248139 C40.1033882,10.9760169 39.6195221,11.8403589 39.2555831,12.8411911 C38.9829819,13.5908444 38.8124755,14.319607 38.7440615,15.0274908 C38.5745997,15.2011416 38.3977128,15.3822174 38.2133995,15.5707196 C37.8494605,15.9429299 37.485527,16.2861854 37.1215881,16.6004963 C36.7576491,16.9148072 36.4557498,17.0719603 36.2158809,17.0719603 C35.976012,17.0719603 35.7692316,17.0057906 35.5955335,16.8734491 C35.4218354,16.7411077 35.3349876,16.5012424 35.3349876,16.1538462 C35.3349876,15.8064499 35.5252256,14.9048873 35.9057072,13.4491315 C36.3027315,11.7783208 36.5012407,10.6120794 36.5012407,9.95037221 C36.5177834,9.47063449 36.4102576,8.98263275 36.17866,8.48635236 C35.8974345,7.84118784 35.5169586,7.51861042 35.0372208,7.51861042 C34.2266295,7.51861042 33.4987625,8.57732605 32.853598,10.6947891 C32.5092102,11.8381567 32.3082148,13.090485 32.2506082,14.4518005 C32.1246583,14.5810726 31.9865318,14.7431274 31.8362283,14.9379653 C30.7444114,16.3440931 29.4871866,17.0471464 28.0645161,17.0471464 C27.5351504,17.0471464 27.0719623,16.8320948 26.674938,16.4019851 C26.2779136,15.9718754 26.0794045,15.2936357 26.0794045,14.3672457 L26.0794045,13.3746898 C26.8569104,12.3655864 27.6509471,11.430939 28.4615385,10.5707196 C29.2721298,9.71050025 30.0124036,8.88751427 30.6823821,8.10173697 C31.3523607,7.31595968 31.9023965,6.55500782 32.3325062,5.81885856 C32.7626159,5.08270931 32.9776675,4.3507067 32.9776675,3.62282878 C32.9776675,2.89495087 32.7750227,2.3366438 32.369727,1.94789082 C31.9644314,1.55913784 31.4061243,1.36476427 30.6947891,1.36476427 C29.0901491,1.34822159 27.6344151,2.06781737 26.3275434,3.5235732 C25.7320069,4.1852804 25.1943779,4.97931712 24.7146402,5.9057072 C23.7717074,7.72540199 23.1348238,9.7104938 22.8039702,11.8610422 C22.6472517,12.8797127 22.5647686,13.8426938 22.5565189,14.7500114 C22.508079,14.8088476 22.458222,14.8714989 22.4069479,14.9379653 C21.315131,16.3440931 20.0579062,17.0471464 18.6352357,17.0471464 C18.10587,17.0471464 17.6426819,16.8320948 17.2456576,16.4019851 C16.8486333,15.9718754 16.6501241,15.2936357 16.6501241,14.3672457 L16.6501241,13.3746898 C17.42763,12.3655864 18.2216667,11.430939 19.0322581,10.5707196 C19.8428494,9.71050025 20.5831232,8.88751427 21.2531017,8.10173697 C21.9230803,7.31595968 22.4731161,6.55500782 22.9032258,5.81885856 C23.3333355,5.08270931 23.5483871,4.3507067 23.5483871,3.62282878 C23.5483871,2.89495087 23.3457423,2.3366438 22.9404467,1.94789082 C22.535151,1.55913784 21.9768439,1.36476427 21.2655087,1.36476427 C19.6608687,1.34822159 18.2051347,2.06781737 16.898263,3.5235732 C16.3027266,4.1852804 15.7650975,4.97931712 15.2853598,5.9057072 C14.342427,7.72540199 13.7055434,9.7104938 13.3746898,11.8610422 C13.2393372,12.7408342 13.1593583,13.5790864 13.1347519,14.3758153 C13.1040703,14.4081236 13.0723871,14.4424879 13.0397022,14.4789082 C12.7502053,14.8014904 12.373865,15.1530171 11.91067,15.5334988 C11.4474749,15.9139804 10.9057103,16.2655071 10.2853598,16.5880893 C9.66500931,16.9106716 8.85443015,17.0719603 7.85359801,17.0719603 C6.85276588,17.0719603 5.98428821,16.8486375 5.24813896,16.4019851 C4.5119897,15.9553328 4.1439206,15.2646862 4.1439206,14.3300248 C4.1439206,13.3953634 4.27212444,12.6799032 4.52853598,12.1836228 C4.78494752,11.6873424 5.15301663,11.2737816 5.63275434,10.942928 C6.06286402,11.0752695 6.45988238,11.1414392 6.82382134,11.1414392 C8.47808933,11.1414392 9.30521092,10.7196072 9.30521092,9.87593052 C9.30521092,9.14805261 8.58561514,8.78411911 7.14640199,8.78411911 C6.84863375,8.78411911 6.57568362,8.80893275 6.32754342,8.85856079 C6.04631787,8.59387792 5.81058821,8.25889367 5.62034739,7.85359801 C5.43010658,7.44830236 5.33498759,7.09677568 5.33498759,6.79900744 L5.33498759,6.25310174 C5.33498759,6.18693102 5.34325881,6.12076129 5.35980149,6.05459057 C6.43507568,6.84863921 7.59304591,7.24565757 8.8337469,7.24565757 C10.0744479,7.24565757 11.075265,6.9478938 11.8362283,6.35235732 C12.5971916,5.75682084 12.9776675,5.02068263 12.9776675,4.1439206 C12.9776675,3.5649268 12.8618705,3.07692506 12.630273,2.67990074 C12.0016511,1.62116923 10.7361551,1.09181141 8.8337469,1.09181141 C6.93133871,1.09181141 5.27709553,1.52191464 3.87096774,2.382134 C3.63937022,2.24979256 3.41604739,2.07609702 3.20099256,1.86104218 C2.98593772,1.64598734 2.70885199,1.3606304 2.36972705,1.00496278 C2.03060211,0.649295161 1.74524516,0.47146402 1.51364764,0.47146402 C1.18279404,0.47146402 1.01736973,0.703058065 1.01736973,1.1662531 C1.01736973,1.43093598 1.14557357,1.81968313 1.40198511,2.3325062 C1.65839665,2.84532928 1.99338089,3.33333102 2.40694789,3.79652605 C1.96029553,4.49131861 1.7369727,5.24399926 1.7369727,6.05459057 C1.7369727,7.7584866 2.34077146,9.03225385 3.5483871,9.87593052 C1.18278387,10.8188633 8.52651283e-14,12.4731065 8.52651283e-14,14.8387097 C8.52651283e-14,15.7485571 0.165424318,16.5260514 0.496277916,17.1712159 C1.43921067,19.0074533 3.49874342,19.9255583 6.67493797,19.9255583 C8.70968759,19.9255583 10.4590498,19.4251498 11.9230769,18.4243176 C12.5794746,17.9755938 13.0887219,17.4944509 13.4508208,16.980886 Z M10.2233251,4.51612903 C10.2233251,3.87096452 9.69396725,3.5483871 8.63523573,3.5483871 C7.57650422,3.5483871 6.72456898,3.87096452 6.07940447,4.51612903 C6.97270918,5.06203747 7.88667854,5.33498759 8.82133995,5.33498759 C9.75600136,5.33498759 10.2233251,5.06203747 10.2233251,4.51612903 Z"></path>
  </symbol>

  <symbol id="checkbox-unchecked" viewBox="0 0 20 20">
    <path fill-rule="evenodd" d="M17.7777604,0 L2.22223958,0 C0.999895833,0 0,0.999895833 0,2.22223958 L0,17.7777604 C0,19.0001042 0.999895833,20 2.22223958,20 L17.7777604,20 C19.0001042,20 20,19.0001042 20,17.7777604 L20,2.22223958 C20,0.999895833 19.0001042,0 17.7777604,0 L17.7777604,0 Z"></path>
  </symbol>

  <symbol id="checkbox-checked" viewBox="0 0 20 20">
    <rect fill="#fc6ecc" x="2" y ="2" width="16" height="16" class="check-fill"></rect>
    <path fill-rule="evenodd" d="M17.7777604,0 L2.22223958,0 C0.999895833,0 0,0.999895833 0,2.22223958 L0,17.7777604 C0,19.0001042 0.999895833,20 2.22223958,20 L17.7777604,20 C19.0001042,20 20,19.0001042 20,17.7777604 L20,2.22223958 C20,0.999895833 19.0001042,0 17.7777604,0 L17.7777604,0 Z M7.77776042,15.5555729 L2.22223958,10 L3.77765625,8.44458333 L7.77776042,12.4446875 L16.2223438,4.00010417 L17.7777604,5.55557292 L7.77776042,15.5555729 L7.77776042,15.5555729 Z"></path>
  </symbol>

  <symbol id="icon-copy" viewBox="0 0 16 20">
    <g fill-rule="evenodd">
      <path d="M3.60713887,5.72243636 L12.157394,5.72243636 C12.082223,4.83178478 11.7241365,4.14375644 10.9139998,3.92527961 C10.8941383,3.91998024 10.8641234,3.9063978 10.8442173,3.90118749 C10.3096482,3.74870794 9.90849875,3.56037966 9.90849875,2.97575597 L9.90849875,2.05860751 C9.90849875,0.921423585 8.99451211,0 7.85955481,0 C6.72548816,0 5.81150152,0.921423585 5.81150152,2.05860751 L5.81150152,2.97575597 C5.81150152,3.56037966 5.4288776,3.74033581 4.89426399,3.89281536 C4.87435793,3.89802568 4.85863793,3.91998024 4.83788575,3.92527961 C4.02779361,4.14375644 3.69295315,4.83178478 3.60713887,5.72243636 L3.60713887,5.72243636 Z M7.8818211,1.44263289 C8.22093668,1.44263289 8.49596989,1.71851221 8.49596989,2.05860751 C8.49596989,2.39945987 8.22093668,2.67538373 7.8818211,2.67538373 C7.54275004,2.67538373 7.26851842,2.3995044 7.26851842,2.05860751 C7.26851842,1.71851221 7.54275004,1.44263289 7.8818211,1.44263289 L7.8818211,1.44263289 Z" id="Shape"></path>
      <path d="M14.5002975,1.40277623 L11.1999435,1.40277623 L11.1999435,2.02569794 C11.1999435,2.49698622 11.6093315,2.87235132 12.0686405,2.87235132 L13.7257869,2.87235132 C14.0226856,2.87235132 14.2645865,3.11438589 14.2797721,3.41542612 L14.2835574,17.9820326 C14.2692179,18.2684661 14.0474011,18.4962058 13.7708093,18.5171806 L1.99559391,18.5185611 C1.71900207,18.4975863 1.4991002,18.2649481 1.48471617,17.9785591 L1.4809309,3.41578238 C1.49527039,3.11469762 1.74180275,2.87235132 2.03785533,2.87235132 L3.69584777,2.87235132 C4.15511225,2.87235132 4.5200122,2.49698622 4.5200122,2.02569794 L4.5200122,1.40277623 L1.26330019,1.40277623 C0.590056667,1.40277623 0.0222662893,1.96201635 0.0222662893,2.65302837 L0.0222662893,18.7016791 C0.0222662893,19.3920231 0.590056667,19.9728615 1.26334472,19.9728615 L7.8818211,19.9728615 L14.5002975,19.9728615 C15.1744316,19.9728615 15.697734,19.3920231 15.697734,18.7016791 L15.697734,2.65302837 C15.697734,1.96201635 15.1744316,1.40277623 14.5002975,1.40277623 L14.5002975,1.40277623 Z"></path>
      <rect id="Rectangle-path" x="2.87235132" y="7.14747887" width="4.98764881" height="1.42504252"></rect>
      <rect id="Rectangle-path" x="2.87235132" y="15.697734" width="7.12521259" height="1.42504252"></rect>
      <rect id="Rectangle-path" x="2.87235132" y="12.8476489" width="5.74470265" height="1.42504252"></rect>
      <rect id="Rectangle-path" x="2.87235132" y="9.99756391" width="9.26277636" height="1.42504252"></rect>
    </g>
  </symbol>

  <symbol id ="icon-copy" viewBox="0 0 16 20">
    <g fill-rule="evenodd">
      <polygon id="Shape" points="10 1.66666667 9.16666667 1.66666667 9.16666667 5.83333333 13.3333333 5.83333333 13.3333333 5 10 5"></polygon>
      <path d="M11.109375,0 L2.5,0 L2.5,2.5 L0,2.5 L0,20 L12.5,20 L12.5,17.5 L15,17.5 L15,3.90625 L11.109375,0 L11.109375,0 Z M11.6666667,19.1666667 L0.833333333,19.1666667 L0.833333333,3.33333333 L2.5,3.33333333 L2.5,17.5 L11.6666667,17.5 L11.6666667,19.1666667 L11.6666667,19.1666667 Z M14.1666667,16.6666667 L3.33333333,16.6666667 L3.33333333,0.833333333 L10.765625,0.833333333 L14.1666667,4.25 L14.1666667,16.6666667 L14.1666667,16.6666667 Z" id="Shape"></path>
    </g>
  </symbol>

  <symbol id="icon-settings" viewBox="0 0 20 20">
    <path d="M17.0407674,6.19967184 L16.911271,6.34103244 L16.8345324,6.42685851 C16.7817746,6.46724725 16.7194245,6.48744163 16.647482,6.48744163 C16.5707434,6.48744163 16.498801,6.45715007 16.441247,6.40666414 L16.3980815,6.36122681 L16.2685851,6.2249148 L14.2877698,4.09945728 L14.1822542,3.98838824 L14.1007194,3.90256216 C14.0527578,3.82683327 14.0239808,3.73091001 14.0239808,3.63498675 C14.0239808,3.54916067 14.0527578,3.47343178 14.1007194,3.41284867 L14.2589928,3.24119652 L16.5563549,0.782531869 C16.3117506,0.272624006 15.3717026,0.0302915562 14.8729017,0.0706802979 C14.0527578,0.136312003 13.2086331,0.424081787 12.3405276,1.35807144 C12.3069544,1.39846018 12.2685851,1.43884892 12.235012,1.47418907 C11.0551559,2.82721191 10.8201439,4.64470529 11.2997602,6.31074088 C11.3333333,6.38142118 11.3621103,6.46724725 11.3764988,6.54297615 C11.4292566,6.82064874 11.3573141,7.0579326 11.1846523,7.22453616 L9.36690647,9.06222391 C8.80095923,8.45639278 8.71942446,8.3756153 8.71942446,8.3756153 C8.6235012,8.27464344 8.43165468,8.20901174 8.26378897,8.31503218 L7.98081535,8.49678152 C6.89208633,7.33055661 6.43165468,6.86103749 6.28297362,6.2955951 C6.1294964,5.70490976 6.26858513,4.91732929 6.41247002,4.62451092 C6.5323741,4.39227565 6.90647482,4.17518617 7.22302158,4.1499432 L7.63549161,4.59421936 C7.73141487,4.69519122 7.88009592,4.69519122 7.97601918,4.59421936 L9.45803357,3.00896125 C9.55395683,2.9079894 9.55395683,2.74138584 9.45803357,2.64041398 L7.0647482,0.0807774833 C6.96882494,-0.0201943708 6.81534772,-0.0201943708 6.72422062,0.0807774833 L5.24220624,1.66603559 C5.14628297,1.76700745 5.14628297,1.93361101 5.24220624,2.03458286 L5.40047962,2.20623501 C5.40047962,2.45361605 5.36690647,2.8373091 5.17505995,3.0443014 C4.87769784,3.36236274 4.28776978,2.99381547 3.90407674,3.28158526 C3.52517986,3.56430645 3.04556355,4.01867979 2.73860911,4.34178973 C2.43645084,4.66489966 1.27577938,5.94724221 0.446043165,8.10803988 C-0.383693046,10.2688376 0.254196643,12.2731289 0.705035971,12.7981825 C0.944844125,13.0758551 1.38129496,13.3585763 1.30455635,12.8335227 C1.22781775,12.3034204 1.10311751,10.4657327 1.67386091,9.71349236 C2.24460432,8.96125205 2.99760192,8.34532374 3.97601918,8.29483781 C4.91606715,8.24435189 5.45803357,8.5826076 6.67625899,9.88514452 L6.54196643,10.1476713 C6.45563549,10.3193235 6.50359712,10.536413 6.59952038,10.6373848 C6.59952038,10.6373848 6.67146283,10.7181623 7.17985612,11.2634103 L2.51798561,15.9686987 C1.74100719,16.6906475 1.78417266,18.0133788 2.50359712,18.7959106 C3.23261391,19.5632967 4.47482014,19.6188313 5.15107914,18.7858135 L9.53477218,13.807901 C11.8896882,16.448315 14.0095923,19.2300896 14.0095923,19.2300896 C14.1055156,19.3310615 14.2589928,19.3310615 14.3501199,19.2300896 L16.7434053,16.6704531 C16.8393285,16.5694813 16.8393285,16.4079263 16.7434053,16.3019058 C16.7434053,16.3019058 14.0959233,13.994699 11.6115108,11.4451597 L13.3141487,9.51154866 C13.4724221,9.32475073 13.6930456,9.24902184 13.9520384,9.30455635 C14.0239808,9.31970213 14.1007194,9.35504228 14.1678657,9.39038243 C15.7218225,9.90533889 17.4196643,9.65290925 18.676259,8.39076108 C18.7146283,8.35542093 18.7482014,8.31503218 18.7865707,8.27464344 C19.6546763,7.34570239 19.9232614,6.4369557 19.9856115,5.55850057 C20.0335731,5.02334974 19.8177458,4.02877698 19.3285372,3.75110438 L17.0407674,6.19967184 Z"></path>
  </symbol>

  <symbol id="icon-package" viewBox="0 1 20 18">
    <path fill-rule="nonzero" d="M0,5.02333635 L0,14.9833364 C0,15.5833364 0.4,16.1033364 1,16.2766697 L9.66666667,18.5833364 C9.88,18.650003 10.12,18.650003 10.3333333,18.5833364 L19,16.2766697 C19.6,16.1033364 20,15.5833364 20,14.9833364 L20,5.02333635 C20,4.42333635 19.6,3.90333635 19,3.73000302 L10.3333333,1.41000302 C10.1129115,1.36999899 9.88708853,1.36999899 9.66666667,1.41000302 L1,3.73000302 C0.4,3.90333635 0,4.42333635 0,5.02333635 Z M9.33333333,17.1433364 L1.33333333,15.0233364 L1.33333333,5.99666969 L9.33333333,8.14333635 L9.33333333,17.1433364 Z M1.33333333,4.66333635 L4.66666667,3.77000302 L13.3333333,6.07666969 L10,6.97000302 L1.33333333,4.66333635 Z M18.6666667,15.0233364 L10.6666667,17.1433364 L10.6666667,8.14333635 L13.3333333,7.41000302 L13.3333333,10.6633364 L16,9.95666969 L16,6.70333635 L18.6666667,5.99666969 L18.6666667,15.0233364 Z M16,5.37000302 L7.33333333,3.06333635 L10,2.35666969 L18.6666667,4.66333635 L16,5.37000302 L16,5.37000302 Z"></path>
  </symbol>

  <symbol id="icon-trash" viewBox="0 0 20 20">
    <path fill-rule="evenodd" d="M14.42375,3.33333333 L14.42375,1.82291667 C14.42375,0.828125 13.6685416,0 12.626875,0 L7.36124998,0 C6.32479165,0 5.56958332,0.828125 5.56958332,1.82291667 L5.56958332,3.33333333 L0.829999983,3.33333333 L0.829999983,5 L1.30916665,5 C1.30916665,5 1.59041665,5.03125 1.73624998,5.17708333 C1.88208332,5.32291667 1.93937498,5.64583333 1.93937498,5.64583333 L2.92895832,18.234375 C3.00708332,19.765625 3.00708332,20 4.80395832,20 L15.189375,20 C16.98625,20 16.98625,19.7708333 17.064375,18.2395833 L18.0539583,5.65625 C18.0539583,5.65625 18.11125,5.328125 18.2570833,5.18229167 C18.4029166,5.03645833 18.6841666,5.00520833 18.6841666,5.00520833 L19.1633333,5.00520833 L19.1633333,3.33854167 L14.42375,3.33854167 L14.42375,3.33333333 L14.42375,3.33333333 Z M6.66333332,1.82291667 C6.66333332,1.32291667 7.06958332,1.04166667 7.58520832,1.04166667 L12.36125,1.04166667 C12.876875,1.04166667 13.33,1.328125 13.33,1.82291667 L13.33,3.33333333 L6.66333332,3.33333333 L6.66333332,1.82291667 L6.66333332,1.82291667 Z M6.22062498,16.6666667 L5.68416665,6.66666667 L6.74145832,6.66666667 L7.28833332,16.6666667 L6.22062498,16.6666667 L6.22062498,16.6666667 Z M10.5747916,16.6666667 L9.42895832,16.6666667 L9.42895832,6.66666667 L10.5747916,6.66666667 L10.5747916,16.6666667 L10.5747916,16.6666667 Z M13.783125,16.6666667 L12.720625,16.6666667 L13.2675,6.66666667 L14.3247916,6.66666667 L13.783125,16.6666667 L13.783125,16.6666667 Z"></path>
  </symbol>

  <symbol viewBox="0 0 16 20" id="icon-document">
    <path fill-rule="evenodd" d="M15.4010417,5.45833333 C15.3541667,5.34375 15.296875,5.234375 15.21875,5.140625 L10.8541667,0.364583333 C10.7552083,0.255208333 10.6354167,0.177083333 10.5052083,0.109375 C10.3541667,0.03125 10.1875,-4.73316543e-30 10.0104167,-4.73316543e-30 L1.68229167,-4.73316543e-30 C1.03645833,-4.73316543e-30 0.5,0.552083333 0.5,1.24479167 L0.5,18.703125 C0.5,19.4010417 1.03645833,20 1.68229167,20 L14.34375,20 C14.9895833,20 15.5,19.4010417 15.5,18.703125 L15.5,5.98958333 C15.5,5.80208333 15.4739583,5.61979167 15.4010417,5.45833333 L15.4010417,5.45833333 Z M3,5.94791667 C3,5.86979167 3.09375,5.83854167 3.17708333,5.83854167 L6.86458333,5.83854167 C6.94791667,5.83854167 7.01041667,5.86979167 7.01041667,5.94791667 L7.01041667,6.51041667 C7.01041667,6.58333333 6.953125,6.671875 6.86458333,6.671875 L3.17708333,6.671875 C3.09375,6.671875 3,6.58333333 3,6.51041667 L3,5.94791667 L3,5.94791667 Z M3,12.6145833 C3,12.5364583 3.09375,12.5052083 3.17708333,12.5052083 L9.54166667,12.5052083 C9.625,12.5052083 9.66666667,12.5364583 9.66666667,12.6145833 L9.66666667,13.1770833 C9.66666667,13.25 9.63020833,13.3385417 9.54166667,13.3385417 L3.17708333,13.3385417 C3.09375,13.3385417 3,13.25 3,13.1770833 L3,12.6145833 L3,12.6145833 Z M11.3333333,16.5104167 C11.3333333,16.5833333 11.296875,16.671875 11.2083333,16.671875 L3.17708333,16.671875 C3.09375,16.671875 3,16.5833333 3,16.5104167 L3,15.9479167 C3,15.8697917 3.09375,15.8385417 3.17708333,15.8385417 L11.2083333,15.8385417 C11.2916667,15.8385417 11.3333333,15.8697917 11.3333333,15.9479167 L11.3333333,16.5104167 L11.3333333,16.5104167 Z M13,9.84375 C13,9.91666667 12.9635417,10.0052083 12.875,10.0052083 L3.17708333,10.0052083 C3.09375,10.0052083 3,9.91666667 3,9.84375 L3,9.28125 C3,9.203125 3.09375,9.171875 3.17708333,9.171875 L12.875,9.171875 C12.9583333,9.171875 13,9.203125 13,9.28125 L13,9.84375 L13,9.84375 Z M10.5572917,5.890625 C10.265625,5.890625 9.97916667,5.61979167 9.97916667,5.30208333 L9.97916667,1.86458333 L13.6875,5.890625 L10.5572917,5.890625 L10.5572917,5.890625 Z" id="Shape"></path>
  </symbol>

  <symbol id="icon-fork" viewBox="0 0 16 20">
    <g fill-rule="evenodd">
      <polygon points="14.2857143 2.14285714 12.1428571 2.14285714 12.1428571 0 9.28571429 0 9.28571429 2.14285714 7.14285714 2.14285714 7.14285714 5 9.28571429 5 9.28571429 7.14285714 12.1428571 7.14285714 12.1428571 5 14.2857143 5"></polygon>
      <path d="M9.28571429,9.28571429 C9.28571429,11.0089286 9.08482143,11.1741071 8.64285714,11.53125 C8.3125,11.7991071 7.65178571,11.8482143 6.88392857,11.9017857 C6.45982143,11.9330357 5.97321429,11.96875 5.48214286,12.0491071 C5.0625,12.1160714 4.66071429,12.2589286 4.28571429,12.4419643 L4.28571429,5.33035714 C5.13839286,4.83482143 5.71428571,3.91517857 5.71428571,2.85714286 C5.71428571,1.28125 4.43303571,0 2.85714286,0 C1.28125,0 0,1.28125 0,2.85714286 C0,3.91517857 0.575892857,4.83482143 1.42857143,5.33035714 L1.42857143,14.6696429 C0.575892857,15.1651786 0,16.0848214 0,17.1428571 C0,18.71875 1.28125,20 2.85714286,20 C4.43303571,20 5.71428571,18.71875 5.71428571,17.1428571 C5.71428571,16.4419643 5.45982143,15.7991071 5.04464286,15.3035714 C5.34375,15.0892857 5.66517857,14.9151786 5.94642857,14.8705357 C6.30803571,14.8125 6.6875,14.7857143 7.08928571,14.7544643 C8.17857143,14.6785714 9.41517857,14.5892857 10.4464286,13.75 C11.8258929,12.6294643 12.1205357,11.4241071 12.1428571,9.51339286 L12.1428571,9.51339286 L12.1428571,9.28571429 L9.28571429,9.28571429 L9.28571429,9.28571429 Z M2.85714286,1.42857143 C3.64285714,1.42857143 4.28571429,2.07142857 4.28571429,2.85714286 C4.28571429,3.64285714 3.64285714,4.28571429 2.85714286,4.28571429 C2.07142857,4.28571429 1.42857143,3.64285714 1.42857143,2.85714286 C1.42857143,2.07142857 2.07142857,1.42857143 2.85714286,1.42857143 L2.85714286,1.42857143 Z M2.85714286,18.5714286 C2.07142857,18.5714286 1.42857143,17.9285714 1.42857143,17.1428571 C1.42857143,16.3571429 2.07142857,15.7142857 2.85714286,15.7142857 C3.64285714,15.7142857 4.28571429,16.3571429 4.28571429,17.1428571 C4.28571429,17.9285714 3.64285714,18.5714286 2.85714286,18.5714286 L2.85714286,18.5714286 Z"></path>
    </g>
  </symbol>

  <symbol id="icon-tag" viewBox="0 0 20 20">
    <path fill-rule="evenodd" d="M10.2204574,0.7903106 L10.1534819,0.723335125 C9.76502419,0.370597626 9.33638116,0.187531329 8.80057736,0.174136234 L4.34894082,0.00893006328 L4.15247942,2.84217094e-14 C3.65239588,0.00893006328 3.1612424,0.200926424 2.78171471,0.584919145 L0.584919145,2.77724968 C0.183066297,3.17910253 0,3.71044129 0,4.23731502 L0.0133950949,4.42931139 L0.312552215,8.77378717 L0.312552215,8.86755283 C0.357202531,9.25601059 0.513478638,9.64000331 0.776915505,9.95702055 L1.02249225,10.1981323 L10.2338525,19.5211183 L10.3722685,19.6595343 C10.9036073,20.1283626 11.711778,20.1060375 12.2163266,19.5970239 L19.6014889,12.1582812 C20.1283626,11.6314074 20.1372927,10.7696563 19.6014889,10.2383175 L10.2204574,0.7903106 Z M5.00083543,7.13958559 C3.81760205,7.13958559 2.85762025,6.17960379 2.85762025,4.9963704 C2.85762025,3.81313702 3.81760205,2.85315522 5.00083543,2.85315522 C6.18406882,2.85315522 7.14405062,3.81313702 7.14405062,4.9963704 C7.14405062,6.17960379 6.18406882,7.13958559 5.00083543,7.13958559 L5.00083543,7.13958559 Z"></path>
  </symbol>

  <symbol id="icon-install" viewBox="0 0 20 13">
    <g fill-rule="evenodd">
      <path d="M13.3318667,7.29351111 C13.6198667,7.00608889 13.6198667,6.54013333 13.3318667,6.25253333 C13.0438667,5.96511111 12.5611111,5.96511111 12.2730667,6.25253333 L10.7111111,7.79697778 L10.7111111,2.51466667 C10.7111111,2.10795556 10.4071556,1.77866667 10.0000444,1.77866667 C9.59284444,1.77866667 9.28888889,2.10791111 9.28888889,2.51466667 L9.28888889,7.79697778 L7.73311111,6.25253333 C7.44506667,5.96511111 6.97333333,5.96511111 6.68542222,6.25253333 C6.39733333,6.54013333 6.3948,7.00608889 6.68288889,7.29351111 L9.486,10.0945333 C9.48688889,10.0954222 9.48724444,10.0961778 9.48822222,10.0970667 C9.52044444,10.1288889 9.55546667,10.1578222 9.59346667,10.1835111 C9.598,10.1864889 9.60235556,10.1894667 9.60688889,10.1924 C9.6212,10.2015556 9.63582222,10.2103111 9.65088889,10.2184889 C9.65608889,10.2213333 9.66115556,10.2244 9.66644444,10.2270667 C9.68515556,10.2367556 9.70417778,10.2458667 9.72386667,10.2539556 C9.72395556,10.254 9.72404444,10.254 9.72413333,10.2540444 C9.74213333,10.2614667 9.76044444,10.2677333 9.77893333,10.2736889 C9.78391111,10.2753333 9.7888,10.2774667 9.79382222,10.2789333 C9.80053333,10.2810222 9.80746667,10.2822222 9.81431111,10.2840444 C9.8776,10.3011556 9.94195556,10.3101778 10.0060889,10.3101778 C10.0701778,10.3101778 10.1345333,10.3011556 10.1977333,10.2840444 C10.2045333,10.2822222 10.2116,10.2810222 10.2183556,10.2789333 C10.2233778,10.2774667 10.2283111,10.2753333 10.2332444,10.2736889 C10.2517333,10.2676889 10.2700889,10.2614667 10.2880444,10.2540444 C10.2881333,10.254 10.2882222,10.254 10.2883556,10.2539556 C10.3079556,10.2458222 10.3270222,10.2367556 10.3456444,10.2271111 C10.3510667,10.2242667 10.3563111,10.2212 10.3616444,10.2183111 C10.3764,10.2100889 10.3908889,10.2016 10.4049778,10.1925778 C10.4098222,10.1895111 10.4146222,10.1863556 10.4193333,10.1831556 C10.4374667,10.1709778 10.4551556,10.1581778 10.4719556,10.1444 C10.4721333,10.1443111 10.4722667,10.1442222 10.4724444,10.1441333 C10.4904889,10.1293778 10.5076,10.1137333 10.5240889,10.0974222 C10.5251556,10.0964444 10.5263556,10.0955111 10.5273778,10.0944889 L13.3318667,7.29351111 L13.3318667,7.29351111 Z"></path>
      <path d="M6.08888889,12.0888889 C5.81586667,12.0888889 5.54288889,11.9847111 5.33462222,11.7764889 L0.356844444,6.79871111 C-0.0597333333,6.38213333 -0.0597333333,5.70675556 0.356844444,5.29022222 L5.33462222,0.312444444 C5.7512,-0.104088889 6.42653333,-0.104088889 6.84311111,0.312444444 C7.2596,0.728977778 7.2596,1.40435556 6.84311111,1.82093333 L2.6196,6.04444444 L6.84311111,10.2679556 C7.2596,10.6844889 7.2596,11.3598667 6.84311111,11.7764444 C6.6348,11.9847111 6.36191111,12.0888889 6.08888889,12.0888889 L6.08888889,12.0888889 Z"></path>
      <path d="M13.9111111,12.0888889 C14.1841333,12.0888889 14.4571111,11.9847111 14.6653778,11.7764889 L19.6431556,6.79871111 C20.0597333,6.38213333 20.0597333,5.70675556 19.6431556,5.29022222 L14.6653778,0.312444444 C14.2488,-0.104088889 13.5734667,-0.104088889 13.1568889,0.312444444 C12.7404,0.728977778 12.7404,1.40435556 13.1568889,1.82093333 L17.3804,6.04444444 L13.1568889,10.2679556 C12.7404,10.6844889 12.7404,11.3598667 13.1568889,11.7764444 C13.3652,11.9847111 13.6380889,12.0888889 13.9111111,12.0888889 L13.9111111,12.0888889 Z"></path>
    </g>
  </symbol>

  <symbol id="icon-info" viewBox="0 0 20 20">
    <path fill-rule="evenodd" d="M19.9991455,9.86608287 C19.9232591,4.34423334 15.3879324,-0.07056795 9.86608287,0.000854517739 C4.34423334,0.0722769855 -0.07056795,4.61206759 0.000854517739,10.1339171 C0.0767408897,15.6557667 4.61206759,20.0705679 10.1339171,19.9991455 C15.6557667,19.9232591 20.0750319,15.3879324 19.9991455,9.86608287 L19.9991455,9.86608287 Z M10,3.567514 C10.790111,3.567514 11.4284494,4.20585231 11.4284494,4.99596335 C11.4284494,5.7860744 10.790111,6.42441271 10,6.42441271 C9.20988895,6.42441271 8.57155065,5.7860744 8.57155065,4.99596335 C8.57155065,4.20585231 9.20988895,3.567514 10,3.567514 L10,3.567514 Z M11.9641179,16.2048269 L8.03588214,16.2048269 L8.03588214,15.7137974 L9.01794107,15.7137974 L9.01794107,8.57155065 L8.03588214,8.57155065 L8.03588214,8.03588214 L10.9820589,8.03588214 L10.9820589,15.7137974 L11.9641179,15.7137974 L11.9641179,16.2048269 L11.9641179,16.2048269 Z"></path>
  </symbol>

  <symbol id="icon-play" viewBox="0 0 18 20">
    <path fill-rule="evenodd" d="M16.1041667,8.796875 L1.60416667,0.166666667 C1.42708333,0.0625 1.24479167,0 1.03645833,0 C0.46875,0 0.00520833333,0.46875 0.00520833333,1.04166667 L-2.84217094e-14,1.04166667 L-2.84217094e-14,18.9583333 L0.00520833333,18.9583333 C0.00520833333,19.53125 0.46875,20 1.03645833,20 C1.25,20 1.42708333,19.9270833 1.61979167,19.8229167 L16.1041667,11.203125 C16.4479167,10.9166667 16.6666667,10.484375 16.6666667,10 C16.6666667,9.515625 16.4479167,9.08854167 16.1041667,8.796875 L16.1041667,8.796875 Z"></path>
  </symbol>

  <symbol id="icon-upload" viewBox="0 0 20 18">
    <g fill-rule="evenodd">
      <rect x="9.64285714" y="12.9017857" width="1" height="4.28571429"></rect>
      <path d="M16.40625,5.22321429 C16.40625,2.35267857 14.0491071,0.0267857143 11.1919643,0.0267857143 C9.13392857,0.0267857143 7.36160714,1.23660714 6.53125,2.98660714 C6.16964286,2.80357143 5.76785714,2.70089286 5.33482143,2.70089286 C4.01339286,2.70089286 2.91964286,3.75446429 2.70535714,5.02232143 C1.13392857,5.5625 0,7.10714286 0,8.875 C0,11.09375 1.79017857,12.9017857 4,12.9017857 L6.69642857,12.9017857 L8.08035714,12.9017857 L9.64285714,12.9017857 L9.64285714,6.375 L7.20089286,8.80803571 L6.68303571,8.29017857 L10.0089286,4.97321429 L13.3348214,8.29017857 L12.8080357,8.80803571 L10.3571429,6.375 L10.3571429,12.9017857 L16.3392857,12.9017857 C18.3482143,12.9017857 20,11.2366071 20,9.20535714 C20,7.17410714 18.4151786,5.38839286 16.3973214,5.38392857 C16.3973214,5.33035714 16.40625,5.27678571 16.40625,5.22321429 Z"></path>
    </g>
  </symbol>

  <symbol id="icon-format" viewBox="0 0 20 20">
    <g fill-rule="evenodd">
      <rect x="0" y="0" width="17.9775281" height="2.02247191"></rect>
      <rect x="0" y="4.49438202" width="13.4831461" height="2.02247191"></rect>
      <rect x="0" y="8.98876404" width="8.98876404" height="2.02247191"></rect>
      <rect x="0.0449438202" y="13.4831461" width="17.9775281" height="2.02247191"></rect>
      <rect x="0" y="17.9775281" width="13.4831461" height="2.02247191"></rect>
    </g>
  </symbol>

  <symbol id="icon-link" viewBox="0 0 20 10">
    <g fill-rule="evenodd">
      <path d="M15.859375,0 L13.3333333,0 C13.3333333,0 14.6875,0.885416667 14.9791667,2.5 L15.8333333,2.5 L15.859375,2.5 C16.7760417,2.5 17.5,3.22395833 17.5,4.140625 L17.5,5.80729167 C17.5,6.72395833 16.7760417,7.5 15.859375,7.5 L10.0260417,7.5 C9.109375,7.5 8.33333333,6.72395833 8.33333333,5.80729167 L8.33333333,4.16666667 L5.83333333,4.16666667 L5.83333333,5.80729167 C5.83333333,6.40625 5.96354167,6.97916667 6.19270833,7.5 C6.84895833,8.96875 8.32291667,10 10.0260417,10 L15.859375,10 C18.1614583,10 20,8.109375 20,5.80729167 L20,4.140625 C20,1.83854167 18.1614583,0 15.859375,0 L15.859375,0 Z"></path>
      <path d="M13.8333333,2.5 C13.203125,1.02604167 11.7447917,0 10.0260417,0 L4.19270833,0 C1.890625,0 0,1.83854167 0,4.140625 L0,5.80729167 C0,8.109375 1.890625,10 4.19270833,10 L6.66666667,10 C6.66666667,10 5.32291667,9.11458333 4.99479167,7.5 L4.19270833,7.5 C3.27604167,7.5 2.5,6.72395833 2.5,5.80729167 L2.5,4.140625 C2.5,3.22395833 3.27604167,2.5 4.19270833,2.5 L10,2.5 L10.0260417,2.5 C10.9427083,2.5 11.6666667,3.22395833 11.6666667,4.140625 L11.6666667,5.80729167 L11.6666667,5.83333333 L14.1666667,5.83333333 L14.1666667,5.80729167 L14.1666667,4.140625 C14.1666667,3.55729167 14.046875,3 13.8333333,2.5 L13.8333333,2.5 Z"></path>
    </g>
  </symbol>

  <symbol id="icon-people" viewBox="0 0 20 14">
    <g fill-rule="evenodd">
      <path d="M12.2761693,9.4922049 C12.0935412,9.4298441 11.7327394,9.35412027 11.6570156,9.14476615 C11.5857461,8.93986637 11.5857461,8.69933185 11.5723831,8.48552339 C11.5634744,8.31625835 11.55902,8.14699332 11.55902,7.97772829 C11.55902,7.86636971 11.844098,7.63028953 11.9064588,7.52783964 C12.1469933,7.12694878 12.169265,6.58797327 12.2138085,6.13363029 C12.6013363,6.24053452 12.6503341,5.5233853 12.7171492,5.30512249 C12.766147,5.15367483 13.064588,4.11135857 12.6013363,4.25389755 C12.7126949,4.05790646 12.7572383,3.81737194 12.7884187,3.59910913 C12.8775056,3.02895323 12.9131403,2.40534521 12.7394209,1.84855234 C12.3786192,0.690423163 11.2694878,0.0400890869 10.0979955,0.00445434298 C8.90868597,-0.0356347439 7.71492205,0.534521158 7.26948775,1.68819599 C7.05567929,2.24944321 7.07349666,2.8596882 7.14476615,3.44766147 C7.17594655,3.71492205 7.22048998,4.01336303 7.35412027,4.25389755 C6.922049,4.1247216 7.15367483,5.04231626 7.20267261,5.20267261 C7.27394209,5.4298441 7.3363029,6.24498886 7.74164811,6.13363029 C7.77728285,6.49443207 7.81737194,6.86414254 7.91536748,7.21603563 C7.98218263,7.45211581 8.12026726,7.65256125 8.28062361,7.83518931 C8.36080178,7.92427617 8.40089087,7.93318486 8.39643653,8.04899777 C8.39198218,8.39643653 8.40089087,8.77060134 8.31180401,9.1091314 C8.22271715,9.44766147 7.47884187,9.59020045 7.18040089,9.65256125 C6.37861915,9.81737194 5.63919822,9.89309577 4.97104677,10.3919822 C4.19153675,10.9665924 3.78619154,11.8619154 3.78619154,12.8285078 L14.9175947,12.8285078 L16.169265,12.8285078 C16.169265,11.5144766 15.376392,10.3563474 14.1291759,9.92427617 C13.5278396,9.71492205 12.8775056,9.70155902 12.2761693,9.4922049 Z"></path>
      <path d="M5.62827741,8.66959467 C5.50840273,8.56733789 5.30700153,8.38346055 5.25643033,8.24364604 C5.2088339,8.10680632 5.2088339,7.94616838 5.19990957,7.8033791 C5.19396002,7.69033759 5.19098524,7.57729608 5.19098524,7.46425456 C5.19098524,7.38988515 5.38137095,7.23222199 5.42301782,7.16380212 C5.58365576,6.89607222 5.59852964,6.53612425 5.62827741,6.23269703 C5.88708298,6.30409167 5.91980552,5.82515263 5.96442717,5.67938858 C5.99714971,5.57824617 6.19645975,4.88214844 5.88708298,4.97734129 C5.96145239,4.84645112 5.99120016,4.68581318 6.0120236,4.54004912 C6.07151913,4.15927771 6.09531734,3.74280898 5.97930105,3.3709619 C5.73834414,2.59751998 4.99762476,2.16320259 4.2152585,2.13940437 C3.42099314,2.11263138 2.623753,2.49340279 2.32627533,3.26386994 C2.18348606,3.6386918 2.19538516,4.0462362 2.24298159,4.43890672 C2.26380503,4.61739332 2.29355279,4.81670335 2.38279609,4.97734129 C2.09424276,4.89107277 2.24893114,5.50387676 2.28165369,5.61096872 C2.32925011,5.76268232 2.37089698,6.30706645 2.64160166,6.23269703 C2.66539987,6.47365394 2.69217286,6.7205604 2.75761795,6.95556776 C2.8022396,7.11323092 2.89445767,7.24709587 3.00154963,7.36906171 C3.05509561,7.42855724 3.0818686,7.4345068 3.07889383,7.51185099 C3.07591905,7.74388357 3.0818686,7.99376481 3.02237307,8.21984783 C2.96287754,8.44593086 2.46608984,8.54112371 2.2667798,8.58277058 C1.73132001,8.69283732 1.23750708,8.74340852 0.791290587,9.0765835 C0.270704674,9.46032969 0,10.0582598 0,10.7037863 C2.47798894,10.7037863 0.535431278,10.7037863 3.59103915,10.7037863 C3.67849687,10.7037863 4.2152585,9.17757008 6.0120236,9.17757008 C6.08796281,9.17757008 6.24099859,9.0765835 6.08796281,8.89251582 C5.68636796,8.75270132 5.74815209,8.77185144 5.62827741,8.66959467 Z"></path>
      <path d="M11.8591369,10.8296939 C12.0596868,10.729419 12.0195768,10.749474 11.9126169,10.8029539 C12.3671966,10.5890341 12.8552014,10.5355541 13.3432061,10.4887591 C13.530386,10.4687041 13.6172909,10.3416892 13.476906,10.1611943 C13.2095062,9.82025948 12.2869767,9.75340952 11.8992469,9.59965461 C11.658587,9.50606466 11.5917371,9.41915971 11.5716821,9.15175986 C11.5649971,9.03142993 11.4981471,8.49663023 11.5917371,8.40972528 C11.658587,8.34287531 12.0797418,8.3696153 12.1733317,8.35624531 C12.5543765,8.30945033 12.9421063,8.22923038 13.3030961,8.08884546 C13.456851,8.02868049 13.6039209,7.95514553 13.7376209,7.86155558 C13.8980608,7.74122565 13.6172909,7.44708582 13.543756,7.28664591 C13.3164661,6.78527119 13.2161912,6.2371015 13.1827662,5.6889318 C13.1159162,4.61264741 13.2830411,3.52967802 13.0824912,2.46007862 C12.7816664,0.822254538 11.5182021,2.84217094e-14 9.90711801,2.84217094e-14 C8.91105357,2.84217094e-14 7.92835912,0.340934809 7.37350444,1.20998432 C6.75848478,2.16593878 6.79190976,3.35586812 6.82533474,4.4455225 C6.84538973,5.06722715 6.87212972,5.6956168 6.78522477,6.31732145 C6.74511479,6.5847213 6.68494982,6.84543616 6.59135987,7.09946601 C6.51782492,7.2933309 6.14346513,7.77465063 6.29053504,7.87492558 C6.84538973,8.26934036 7.78128921,8.40304028 8.44978883,8.34956031 C8.46984382,8.67712513 8.53000879,9.09827989 8.40967885,9.40578972 C8.22249896,9.88710945 6.82533474,10.0141244 6.40417998,10.1545093 C5.23430564,10.5422391 4.36525612,11.4915085 4.36525612,12.8285078 L8.02863407,12.8285078 L9.67982814,12.8285078 C9.76673309,12.8285078 10.1009829,12.2068031 10.1945729,12.1065282 C10.6491526,11.6051535 11.2040073,11.1706287 11.8056569,10.8564339 C11.5783671,10.9700788 11.3042822,11.1104638 11.8591369,10.8296939 Z"></path>
      <path d="M18.5879733,8.90423163 C18.2271715,8.78841871 17.532294,8.75278396 17.2739421,8.44097996 C17.1447661,8.28507795 17.2160356,7.88864143 17.2293987,7.70155902 C17.4253898,7.71937639 17.6391982,7.68819599 17.8396437,7.66146993 C18.0222717,7.63474388 18.2004454,7.59910913 18.3741648,7.53674833 C18.454343,7.50556793 18.5345212,7.47438753 18.610245,7.4298441 C18.7839644,7.32739421 18.7037862,7.30957684 18.6146993,7.15812918 C18.1291759,6.34298441 18.3474388,5.30957684 18.325167,4.4142539 C18.3073497,3.67037862 18.1113586,2.85523385 17.4342984,2.43652561 C16.8240535,2.05790646 15.9198218,2.04454343 15.2650334,2.31180401 C13.376392,3.06904232 14.4899777,5.57238307 13.844098,7.00668151 C13.7327394,7.24721604 13.5723831,7.33184855 13.8530067,7.47438753 C14.0089087,7.5545657 14.1781737,7.60801782 14.3474388,7.6481069 C14.6057906,7.71046771 14.8730512,7.74610245 15.1403118,7.75501114 C15.1848552,7.75501114 15.1536748,8.31625835 15.1403118,8.37416481 C15.091314,8.59242762 14.6146993,8.65478842 14.4365256,8.70378619 C14.2538976,8.75278396 13.9510022,8.76614699 13.8619154,8.95768374 C13.7282851,9.24276169 14.3028953,9.1714922 14.4454343,9.19821826 C14.9042316,9.28285078 15.3095768,9.53674833 15.6659243,9.82628062 C15.9331849,10.0445434 16.2939866,10.3385301 16.3919822,10.6948775 L19.9643653,10.6948775 C19.9554566,9.79955457 19.3719376,9.16258352 18.5879733,8.90423163 L18.5879733,8.90423163 Z"></path>
    </g>
  </symbol>

  <symbol id="icon-close" viewBox="0 0 20 20">
    <path fill-rule="evenodd" d="M19.4041451,16.7668394 L12.6373057,10 L19.4041451,3.23316062 C20.134715,2.50259067 20.134715,1.32642487 19.4041451,0.595854922 C18.6735751,-0.134715026 17.4974093,-0.134715026 16.7668394,0.595854922 L10,7.3626943 L3.23316062,0.595854922 C2.50259067,-0.134715026 1.32642487,-0.134715026 0.595854922,0.595854922 C-0.134715026,1.32642487 -0.134715026,2.50259067 0.595854922,3.23316062 L7.3626943,10 L0.595854922,16.7668394 C-0.134715026,17.4974093 -0.134715026,18.6735751 0.595854922,19.4041451 C1.32642487,20.134715 2.50259067,20.134715 3.23316062,19.4041451 L10,12.6373057 L16.7668394,19.4041451 C17.4974093,20.134715 18.6735751,20.134715 19.4041451,19.4041451 C20.1295337,18.6735751 20.1295337,17.492228 19.4041451,16.7668394 L19.4041451,16.7668394 Z"></path>
  </symbol>

  <symbol id="icon-fold" viewBox="0 0 20 20">
    <path fill-rule="evenodd" d="M10.0033334,12 L14.0033334,16 L11.3366667,16 L11.3366667,20 L8.67000002,20 L8.67000002,16 L6.00333335,16 L10.0033334,12 Z M14.0033334,4 L11.3366667,4 L11.3366667,0 L8.67000002,0 L8.67000002,4 L6.00333335,4 L10.0033334,8 L14.0033334,4 Z M19.3366667,6.66666667 C19.3366667,5.93333333 18.7366667,5.33333333 18.0033334,5.33333333 L14.67,5.33333333 L13.3366667,6.66666667 L17.3366667,6.66666667 L14.67,9.33333333 L5.33666668,9.33333333 L2.67000002,6.66666667 L6.67000002,6.66666667 L5.33666668,5.33333333 L2.00333335,5.33333333 C1.27000002,5.33333333 0.670000017,5.93333333 0.670000017,6.66666667 L4.00333335,10 L0.670000017,13.3333333 C0.670000017,14.0666667 1.27000002,14.6666667 2.00333335,14.6666667 L5.33666668,14.6666667 L6.67000002,13.3333333 L2.67000002,13.3333333 L5.33666668,10.6666667 L14.67,10.6666667 L17.3366667,13.3333333 L13.3366667,13.3333333 L14.67,14.6666667 L18.0033334,14.6666667 C18.7366667,14.6666667 19.3366667,14.0666667 19.3366667,13.3333333 L16.0033334,10 L19.3366667,6.66666667 Z"></path>
  </symbol>

  <symbol id="icon-unfold" viewBox="0 0 19 20">
    <path fill-rule="nonzero"  d="M16.3333333,10 L19.6666667,13.3333333 C19.6666667,14.0666667 19.0666667,14.6666667 18.3333333,14.6666667 L13,14.6666667 L13,13.3333333 L17.6666667,13.3333333 L15,10.6666667 L5.66666667,10.6666667 L3,13.3333333 L7.66666667,13.3333333 L7.66666667,14.6666667 L2.33333333,14.6666667 C1.6,14.6666667 1,14.0666667 1,13.3333333 L4.33333333,10 L1,6.66666667 C1,5.93333333 1.6,5.33333333 2.33333333,5.33333333 L7.66666667,5.33333333 L7.66666667,6.66666667 L3,6.66666667 L5.66666667,9.33333333 L15,9.33333333 L17.6666667,6.66666667 L13,6.66666667 L13,5.33333333 L18.3333333,5.33333333 C19.0666667,5.33333333 19.6666667,5.93333333 19.6666667,6.66666667 L16.3333333,10 Z M9,8 L11.6666667,8 L11.6666667,4 L14.3333333,4 L10.3333333,0 L6.33333333,4 L9,4 L9,8 Z M11.6666667,12 L9,12 L9,16 L6.33333333,16 L10.3333333,20 L14.3333333,16 L11.6666667,16 L11.6666667,12 Z"></path>
  </symbol>

  <symbol id="icon-elm-logo" viewBox="0 0 20 20">
    <g fill-rule="nonzero">
      <polygon points="9.97833333 9.43098765 14.2909877 5.1182716 5.66561728 5.1182716"></polygon>
      <polygon points="0.547345679 0 4.89141975 4.3441358 14.3341358 4.3441358 9.99 0"></polygon>
      <rect transform="translate(15.236139, 9.967457) rotate(45.000000) translate(-15.236139, -9.967457) " x="11.9128376" y="6.62900145" width="6.64660292" height="6.67691128"></rect>
      <polygon points="19.9566667 8.87185185 19.9566667 0 11.0847531 0"></polygon>
      <polygon points="9.43092593 9.97833333 0 0.547407407 0 19.4093827"></polygon>
      <polygon points="15.772963 15.2256173 19.9566667 19.4093827 19.9566667 11.0419136"></polygon>
      <polygon points="9.97833333 10.5257407 0.547469136 19.9566667 19.4092593 19.9566667"></polygon>
    </g>
  </symbol>

  <symbol id="icon-html-tag" viewBox="0 0 20 13">
    <g fill-rule="evenodd">
      <path d="M5.29021111,12.7264445 L0.312433333,7.74866671 C-0.104144444,7.33208894 -0.104144444,6.65671116 0.312433333,6.24017783 L5.29021111,1.26240005 C5.70678889,0.845866714 6.38212222,0.845866714 6.7987,1.26240005 C7.21518889,1.67893338 7.21518889,2.35431116 6.7987,2.77088894 L2.57518889,6.99440005 L6.7987,11.2179112 C7.21518889,11.6344889 7.21518889,12.3098223 6.7987,12.7264 C6.59038889,12.9346667 6.3175,13.0388445 6.04447778,13.0388445 C5.77145556,13.0388445 5.49847778,12.9346667 5.29021111,12.7264445 Z"></path>
      <path d="M14.7924159,12.7264445 L19.6924465,7.74866671 C20.1025178,7.33208894 20.1025178,6.65671116 19.6924465,6.24017783 L14.7924159,1.26240005 C14.3823446,0.845866714 13.7175592,0.845866714 13.3074879,1.26240005 C12.897504,1.67893338 12.897504,2.35431116 13.3074879,2.77088894 L17.4650326,6.99440005 L13.3074879,11.2179112 C12.897504,11.6344889 12.897504,12.3098223 13.3074879,12.7264 C13.5125454,12.9346667 13.7811721,13.0388445 14.04993,13.0388445 C14.3186879,13.0388445 14.5874021,12.9346667 14.7924159,12.7264445 Z"></path>
    </g>
  </symbol>

  <symbol id="icon-eye" viewBox="0 0 20 12">
    <g fill-rule="evenodd">
      <path d="M10,0 C6.34375,0 3.49553571,2.17857143 0,5.71428571 C3.00892857,8.73660714 5.53571429,11.4285714 10,11.4285714 C14.4598214,11.4285714 17.7410714,8.01785714 20,5.77678571 C17.6875,3.15178571 14.4107143,0 10,0 L10,0 Z M10,9.79017857 C7.79464286,9.79017857 6,7.95982143 6,5.71428571 C6,3.46428571 7.79464286,1.63839286 10,1.63839286 C12.2053571,1.63839286 14,3.46875 14,5.71428571 C14,7.96428571 12.2053571,9.79017857 10,9.79017857 L10,9.79017857 Z"></path>
      <path d="M10,4.28571429 C10,3.93303571 10.1294643,3.61160714 10.3392857,3.36160714 C10.2276786,3.34375 10.1160714,3.33482143 10,3.33482143 C8.71428571,3.33482143 7.66517857,4.40178571 7.66517857,5.71428571 C7.66517857,7.02678571 8.71428571,8.09375 10,8.09375 C11.2857143,8.09375 12.3348214,7.02678571 12.3348214,5.71428571 C12.3348214,5.61160714 12.3258929,5.50892857 12.3169643,5.40625 C12.0714286,5.59821429 11.7678571,5.71428571 11.4330357,5.71428571 C10.6383929,5.71428571 10,5.07589286 10,4.28571429 L10,4.28571429 Z"></path>
    </g>
  </symbol>

  <symbol id="icon-external" viewBox="0 0 20 17">
    <path fill-rule="evenodd" d="M15,16.6822917 L2,16.6822917 L2,7.32291667 L4.99479167,7.32291667 C4.99479167,7.32291667 5.72916667,6.296875 7.21875,5.33333333 L1,5.33333333 C0.447916667,5.33333333 0,5.77604167 0,6.328125 L0,17.6770833 C0,18.2239583 0.447916667,18.671875 1,18.671875 L16,18.671875 C16.5520833,18.671875 17,18.2291667 17,17.6770833 L17,12 L15,13.6354167 L15,16.6822917 L15,16.6822917 Z M13.3333333,8.66666667 L13.3333333,11.9947917 L20,7.02083333 L13.3333333,2 L13.3333333,5.109375 C5.27083333,5.109375 5,13.6666667 5,13.6666667 C7.28125,9.94270833 8.95833333,8.66666667 13.3333333,8.66666667 L13.3333333,8.66666667 Z"></path>
  </symbol>


  <symbol viewBox="0 0 10 6" id="icon-chevron">
    <path d="M8.64149306,0.0691964286 C8.73480903,-0.0245535714 8.88888889,-0.0223214286 8.984375,0.0736607143 L9.6484375,0.741071429 C9.74392361,0.837053571 9.74609375,0.993303571 9.65277778,1.08705357 L5.03689236,5.64508929 C4.98914931,5.69419643 4.92404514,5.71651786 4.86111111,5.71205357 C4.79600694,5.71428571 4.73307292,5.69196429 4.68532986,5.64508929 L0.0694444444,1.08705357 C-0.0238715278,0.993303571 -0.0217013889,0.837053571 0.0737847222,0.741071429 L0.737847222,0.0736607143 C0.833333333,-0.0223214286 0.987413194,-0.0245535714 1.08072917,0.0691964286 L4.86111111,3.80133929 L8.64149306,0.0691964286 Z" id="Shape"></path>
  </symbol>
</svg>
